<svg width="146" height="146" viewBox="0 0 146 146" fill="none" xmlns="http://www.w3.org/2000/svg">
<rect width="146" height="146" rx="23" fill="#0D6EFD"/>
<path d="M19.523 114V36.96C22.198 36.425 24.7125 35.997 27.0665 35.676C29.4205 35.355 31.7567 35.141 34.075 35.034C36.3933 34.8913 38.8543 34.82 41.458 34.82C47.2003 34.82 52.1758 35.89 56.3845 38.03C60.6288 40.1343 63.9102 42.9698 66.2285 46.5365C68.5468 50.1032 69.706 54.0443 69.706 58.36C69.706 62.9253 68.5112 66.8665 66.1215 70.1835C63.7318 73.4648 60.6288 76.0685 56.8125 77.9945C52.9962 79.8848 48.948 81.0083 44.668 81.365C43.1343 81.5077 41.458 81.5433 39.639 81.472C37.8557 81.365 35.9653 81.044 33.968 80.509C34.503 79.2963 35.2163 78.2085 36.108 77.2455C37.0353 76.2468 38.1053 75.4622 39.318 74.8915C40.5307 74.2852 41.886 73.982 43.384 73.982C45.845 73.982 48.2525 73.3222 50.6065 72.0025C52.9962 70.6472 54.9757 68.7925 56.545 66.4385C58.1143 64.0845 58.899 61.3917 58.899 58.36C58.899 55.364 58.1143 52.689 56.545 50.335C54.9757 47.9453 52.8713 46.0728 50.232 44.7175C47.5927 43.3265 44.668 42.631 41.458 42.631C39.4963 42.631 37.5168 42.6845 35.5195 42.7915C33.5578 42.8985 31.614 43.059 29.688 43.273V114H19.523ZM103.772 115.284C100.74 115.284 97.1738 114.91 93.0721 114.161C89.0061 113.447 85.1541 112.217 81.5161 110.469L84.2981 103.514C87.5081 104.941 90.736 105.975 93.9816 106.617C97.263 107.259 100.134 107.58 102.595 107.58C107.624 107.58 111.53 106.314 114.312 103.781C117.129 101.213 118.538 98.0927 118.538 94.419C118.538 91.3517 117.664 88.7837 115.917 86.715C114.205 84.6463 111.975 82.8095 109.229 81.2045C106.518 79.5995 103.629 78.0302 100.562 76.4965C97.4948 74.9628 94.588 73.233 91.8416 71.307C89.131 69.381 86.9018 67.0627 85.1541 64.352C83.4421 61.6057 82.5861 58.2173 82.5861 54.187C82.5861 50.6203 83.4956 47.3747 85.3146 44.45C87.1336 41.5253 89.666 39.1892 92.9116 37.4415C96.1573 35.6938 99.9201 34.82 104.2 34.82C107.267 34.82 110.353 35.0697 113.456 35.569C116.559 36.0683 119.929 36.8887 123.567 38.03L120.678 44.985C117.646 44.0577 114.811 43.4335 112.172 43.1125C109.568 42.7915 107.267 42.631 105.27 42.631C101.275 42.631 98.2081 43.7902 96.0681 46.1085C93.9281 48.3912 92.8581 51.084 92.8581 54.187C92.8581 56.969 93.732 59.3587 95.4796 61.356C97.2273 63.3533 99.4743 65.1545 102.221 66.7595C104.967 68.3645 107.892 69.9873 110.995 71.628C114.098 73.233 117.022 75.052 119.769 77.085C122.515 79.0823 124.762 81.4898 126.51 84.3075C128.257 87.1252 129.131 90.567 129.131 94.633C129.131 98.164 128.15 101.499 126.189 104.637C124.227 107.776 121.356 110.344 117.575 112.341C113.794 114.303 109.193 115.284 103.772 115.284Z" fill="white"/>
</svg>
