<svg width="628" height="146" viewBox="0 0 628 146" fill="none" xmlns="http://www.w3.org/2000/svg">
<rect width="146" height="146" rx="23" fill="#0D6EFD"/>
<path d="M19.523 114V36.96C22.198 36.425 24.7125 35.997 27.0665 35.676C29.4205 35.355 31.7567 35.141 34.075 35.034C36.3933 34.8913 38.8543 34.82 41.458 34.82C47.2003 34.82 52.1758 35.89 56.3845 38.03C60.6288 40.1343 63.9102 42.9698 66.2285 46.5365C68.5468 50.1032 69.706 54.0443 69.706 58.36C69.706 62.9253 68.5112 66.8665 66.1215 70.1835C63.7318 73.4648 60.6288 76.0685 56.8125 77.9945C52.9962 79.8848 48.948 81.0083 44.668 81.365C43.1343 81.5077 41.458 81.5433 39.639 81.472C37.8557 81.365 35.9653 81.044 33.968 80.509C34.503 79.2963 35.2163 78.2085 36.108 77.2455C37.0353 76.2468 38.1053 75.4622 39.318 74.8915C40.5307 74.2852 41.886 73.982 43.384 73.982C45.845 73.982 48.2525 73.3222 50.6065 72.0025C52.9962 70.6472 54.9757 68.7925 56.545 66.4385C58.1143 64.0845 58.899 61.3917 58.899 58.36C58.899 55.364 58.1143 52.689 56.545 50.335C54.9757 47.9453 52.8713 46.0728 50.232 44.7175C47.5927 43.3265 44.668 42.631 41.458 42.631C39.4963 42.631 37.5168 42.6845 35.5195 42.7915C33.5578 42.8985 31.614 43.059 29.688 43.273V114H19.523ZM103.772 115.284C100.74 115.284 97.1738 114.91 93.0721 114.161C89.0061 113.447 85.1541 112.217 81.5161 110.469L84.2981 103.514C87.5081 104.941 90.736 105.975 93.9816 106.617C97.263 107.259 100.134 107.58 102.595 107.58C107.624 107.58 111.53 106.314 114.312 103.781C117.129 101.213 118.538 98.0927 118.538 94.419C118.538 91.3517 117.664 88.7837 115.917 86.715C114.205 84.6463 111.975 82.8095 109.229 81.2045C106.518 79.5995 103.629 78.0302 100.562 76.4965C97.4948 74.9628 94.588 73.233 91.8416 71.307C89.131 69.381 86.9018 67.0627 85.1541 64.352C83.4421 61.6057 82.5861 58.2173 82.5861 54.187C82.5861 50.6203 83.4956 47.3747 85.3146 44.45C87.1336 41.5253 89.666 39.1892 92.9116 37.4415C96.1573 35.6938 99.9201 34.82 104.2 34.82C107.267 34.82 110.353 35.0697 113.456 35.569C116.559 36.0683 119.929 36.8887 123.567 38.03L120.678 44.985C117.646 44.0577 114.811 43.4335 112.172 43.1125C109.568 42.7915 107.267 42.631 105.27 42.631C101.275 42.631 98.2081 43.7902 96.0681 46.1085C93.9281 48.3912 92.8581 51.084 92.8581 54.187C92.8581 56.969 93.732 59.3587 95.4796 61.356C97.2273 63.3533 99.4743 65.1545 102.221 66.7595C104.967 68.3645 107.892 69.9873 110.995 71.628C114.098 73.233 117.022 75.052 119.769 77.085C122.515 79.0823 124.762 81.4898 126.51 84.3075C128.257 87.1252 129.131 90.567 129.131 94.633C129.131 98.164 128.15 101.499 126.189 104.637C124.227 107.776 121.356 110.344 117.575 112.341C113.794 114.303 109.193 115.284 103.772 115.284Z" fill="white"/>
<path d="M175.052 100V51.04C176.752 50.7 178.35 50.428 179.846 50.224C181.342 50.02 182.827 49.884 184.3 49.816C185.773 49.7253 187.337 49.68 188.992 49.68C192.641 49.68 195.803 50.36 198.478 51.72C201.175 53.0573 203.261 54.8593 204.734 57.126C206.207 59.3927 206.944 61.8973 206.944 64.64C206.944 67.5413 206.185 70.046 204.666 72.154C203.147 74.2393 201.175 75.894 198.75 77.118C196.325 78.3193 193.752 79.0333 191.032 79.26C190.057 79.3507 188.992 79.3733 187.836 79.328C186.703 79.26 185.501 79.056 184.232 78.716C184.572 77.9453 185.025 77.254 185.592 76.642C186.181 76.0073 186.861 75.5087 187.632 75.146C188.403 74.7607 189.264 74.568 190.216 74.568C191.78 74.568 193.31 74.1487 194.806 73.31C196.325 72.4487 197.583 71.27 198.58 69.774C199.577 68.278 200.076 66.5667 200.076 64.64C200.076 62.736 199.577 61.036 198.58 59.54C197.583 58.0213 196.245 56.8313 194.568 55.97C192.891 55.086 191.032 54.644 188.992 54.644C187.745 54.644 186.487 54.678 185.218 54.746C183.971 54.814 182.736 54.916 181.512 55.052V100H175.052ZM229.546 100.68C226.508 100.68 223.743 99.9773 221.25 98.572C218.779 97.1667 216.807 95.104 215.334 92.384C213.883 89.664 213.158 86.332 213.158 82.388C213.158 79.2827 213.622 76.5853 214.552 74.296C215.504 72.0067 216.762 70.114 218.326 68.618C219.912 67.122 221.68 66.0113 223.63 65.286C225.579 64.538 227.551 64.164 229.546 64.164C233.014 64.164 235.972 64.98 238.42 66.612C240.868 68.2213 242.726 70.4087 243.996 73.174C245.288 75.9167 245.934 78.988 245.934 82.388C245.934 85.3347 245.492 87.9527 244.607 90.242C243.746 92.5087 242.556 94.424 241.038 95.988C239.519 97.5293 237.774 98.6967 235.802 99.49C233.83 100.283 231.744 100.68 229.546 100.68ZM229.546 95.784C231.744 95.784 233.558 95.172 234.986 93.948C236.414 92.724 237.468 91.1033 238.148 89.086C238.85 87.046 239.202 84.8133 239.202 82.388C239.202 79.3507 238.748 76.846 237.842 74.874C236.958 72.902 235.779 71.44 234.306 70.488C232.855 69.536 231.268 69.06 229.546 69.06C227.823 69.06 226.225 69.536 224.752 70.488C223.301 71.44 222.122 72.902 221.216 74.874C220.332 76.846 219.89 79.3507 219.89 82.388C219.89 86.332 220.728 89.5507 222.406 92.044C224.083 94.5373 226.463 95.784 229.546 95.784ZM254.869 100V76.744C254.869 74.6587 254.778 72.5507 254.597 70.42C254.438 68.2893 254.166 66.4307 253.781 64.844H258.473C259.198 65.592 259.708 66.4193 260.003 67.326C260.32 68.21 260.581 69.196 260.785 70.284V71.508L261.329 70.284C262.213 68.5387 263.482 67.122 265.137 66.034C266.792 64.9233 268.537 64.368 270.373 64.368C270.894 64.368 271.427 64.4133 271.971 64.504C272.515 64.5947 273.093 64.7307 273.705 64.912L272.889 70.216C272.186 70.0347 271.563 69.9213 271.019 69.876C270.498 69.8307 270.033 69.808 269.625 69.808C268.22 69.808 266.848 70.1933 265.511 70.964C264.174 71.7347 263.074 72.9587 262.213 74.636C261.352 76.3133 260.921 78.512 260.921 81.232V100H254.869ZM293.944 100.748C290.249 100.748 287.404 99.5353 285.41 97.11C283.438 94.6847 282.452 91.3187 282.452 87.012V69.536H276.196V66.476L282.452 64.844V55.868L288.436 53.964V87.76C288.436 90.0947 288.934 92.0553 289.932 93.642C290.952 95.206 292.289 95.988 293.944 95.988C294.828 95.988 295.678 95.9087 296.494 95.75C297.332 95.5913 298.341 95.3307 299.52 94.968L301.016 99.252C299.293 99.8187 297.956 100.204 297.004 100.408C296.052 100.635 295.032 100.748 293.944 100.748ZM296.596 69.536C295.53 69.536 294.624 69.332 293.876 68.924C293.15 68.4933 292.538 67.9267 292.04 67.224C291.564 66.4987 291.178 65.7053 290.884 64.844H300.472V69.536H296.596ZM310.657 100V69.536H304.809V66.272L310.657 64.844V62.94C310.657 59.948 311.167 57.3413 312.187 55.12C313.207 52.8987 314.691 51.176 316.641 49.952C318.59 48.728 320.947 48.116 323.713 48.116C324.846 48.116 326.104 48.2407 327.487 48.49C328.892 48.7393 330.377 49.204 331.941 49.884L330.513 54.032C329.085 53.488 327.895 53.1367 326.943 52.978C326.013 52.8193 325.186 52.74 324.461 52.74C323.191 52.74 321.945 53.0687 320.721 53.726C319.519 54.3607 318.522 55.3807 317.729 56.786C316.958 58.1687 316.573 59.9933 316.573 62.26V100H310.657ZM319.021 69.536C319.338 68.6747 319.735 67.8927 320.211 67.19C320.709 66.4647 321.321 65.898 322.047 65.49C322.795 65.0593 323.713 64.844 324.801 64.844H328.881V69.536H319.021ZM350.073 100.68C347.036 100.68 344.27 99.9773 341.777 98.572C339.306 97.1667 337.334 95.104 335.861 92.384C334.41 89.664 333.685 86.332 333.685 82.388C333.685 79.2827 334.15 76.5853 335.079 74.296C336.031 72.0067 337.289 70.114 338.853 68.618C340.44 67.122 342.208 66.0113 344.157 65.286C346.106 64.538 348.078 64.164 350.073 64.164C353.541 64.164 356.499 64.98 358.947 66.612C361.395 68.2213 363.254 70.4087 364.523 73.174C365.815 75.9167 366.461 78.988 366.461 82.388C366.461 85.3347 366.019 87.9527 365.135 90.242C364.274 92.5087 363.084 94.424 361.565 95.988C360.046 97.5293 358.301 98.6967 356.329 99.49C354.357 100.283 352.272 100.68 350.073 100.68ZM350.073 95.784C352.272 95.784 354.085 95.172 355.513 93.948C356.941 92.724 357.995 91.1033 358.675 89.086C359.378 87.046 359.729 84.8133 359.729 82.388C359.729 79.3507 359.276 76.846 358.369 74.874C357.485 72.902 356.306 71.44 354.833 70.488C353.382 69.536 351.796 69.06 350.073 69.06C348.35 69.06 346.752 69.536 345.279 70.488C343.828 71.44 342.65 72.902 341.743 74.874C340.859 76.846 340.417 79.3507 340.417 82.388C340.417 86.332 341.256 89.5507 342.933 92.044C344.61 94.5373 346.99 95.784 350.073 95.784ZM375.26 100V48.456H381.448V100H375.26ZM392.186 100V64.844H398.714V100H392.186ZM395.45 58.724C394.294 58.724 393.319 58.3387 392.526 57.568C391.755 56.7747 391.37 55.8 391.37 54.644C391.37 53.4427 391.755 52.4567 392.526 51.686C393.319 50.8927 394.294 50.496 395.45 50.496C396.651 50.496 397.626 50.8927 398.374 51.686C399.145 52.4567 399.53 53.4427 399.53 54.644C399.53 55.8 399.145 56.7747 398.374 57.568C397.626 58.3387 396.651 58.724 395.45 58.724ZM423.253 100.68C420.215 100.68 417.45 99.9773 414.957 98.572C412.486 97.1667 410.514 95.104 409.041 92.384C407.59 89.664 406.865 86.332 406.865 82.388C406.865 79.2827 407.329 76.5853 408.259 74.296C409.211 72.0067 410.469 70.114 412.033 68.618C413.619 67.122 415.387 66.0113 417.337 65.286C419.286 64.538 421.258 64.164 423.253 64.164C426.721 64.164 429.679 64.98 432.127 66.612C434.575 68.2213 436.433 70.4087 437.703 73.174C438.995 75.9167 439.641 78.988 439.641 82.388C439.641 85.3347 439.199 87.9527 438.315 90.242C437.453 92.5087 436.263 94.424 434.745 95.988C433.226 97.5293 431.481 98.6967 429.509 99.49C427.537 100.283 425.451 100.68 423.253 100.68ZM423.253 95.784C425.451 95.784 427.265 95.172 428.693 93.948C430.121 92.724 431.175 91.1033 431.855 89.086C432.557 87.046 432.909 84.8133 432.909 82.388C432.909 79.3507 432.455 76.846 431.549 74.874C430.665 72.902 429.486 71.44 428.013 70.488C426.562 69.536 424.975 69.06 423.253 69.06C421.53 69.06 419.932 69.536 418.459 70.488C417.008 71.44 415.829 72.902 414.923 74.874C414.039 76.846 413.597 79.3507 413.597 82.388C413.597 86.332 414.435 89.5507 416.113 92.044C417.79 94.5373 420.17 95.784 423.253 95.784ZM478.281 100.816C476.354 100.816 474.088 100.578 471.481 100.102C468.897 99.6487 466.449 98.8667 464.137 97.756L465.905 93.336C467.945 94.2427 469.996 94.9 472.059 95.308C474.144 95.716 475.969 95.92 477.533 95.92C480.729 95.92 483.211 95.1153 484.979 93.506C486.77 91.874 487.665 89.8907 487.665 87.556C487.665 85.6067 487.11 83.9747 485.999 82.66C484.911 81.3453 483.494 80.178 481.749 79.158C480.026 78.138 478.19 77.1407 476.241 76.166C474.292 75.1913 472.444 74.092 470.699 72.868C468.976 71.644 467.56 70.1707 466.449 68.448C465.361 66.7027 464.817 64.5493 464.817 61.988C464.817 59.7213 465.395 57.6587 466.551 55.8C467.707 53.9413 469.316 52.4567 471.379 51.346C473.442 50.2353 475.833 49.68 478.553 49.68C480.502 49.68 482.463 49.8387 484.435 50.156C486.407 50.4733 488.549 50.9947 490.861 51.72L489.025 56.14C487.098 55.5507 485.296 55.154 483.619 54.95C481.964 54.746 480.502 54.644 479.233 54.644C476.694 54.644 474.745 55.3807 473.385 56.854C472.025 58.3047 471.345 60.016 471.345 61.988C471.345 63.756 471.9 65.2747 473.011 66.544C474.122 67.8133 475.55 68.958 477.295 69.978C479.04 70.998 480.899 72.0293 482.871 73.072C484.843 74.092 486.702 75.248 488.447 76.54C490.192 77.8093 491.62 79.3393 492.731 81.13C493.842 82.9207 494.397 85.108 494.397 87.692C494.397 89.936 493.774 92.0553 492.527 94.05C491.28 96.0447 489.456 97.6767 487.053 98.946C484.65 100.193 481.726 100.816 478.281 100.816ZM512.329 100.68C509.972 100.68 507.932 100.261 506.209 99.422C504.509 98.5607 503.195 97.4047 502.265 95.954C501.359 94.5033 500.905 92.86 500.905 91.024C500.905 88.7347 501.506 86.842 502.707 85.346C503.909 83.8273 505.881 82.6033 508.623 81.674C511.389 80.7447 515.095 80.008 519.741 79.464C519.651 80.008 519.447 80.654 519.129 81.402C518.835 82.15 518.347 82.8413 517.667 83.476C516.987 84.1107 516.047 84.5187 514.845 84.7C512.851 85.0173 511.332 85.482 510.289 86.094C509.269 86.706 508.567 87.4087 508.181 88.202C507.819 88.9727 507.637 89.7773 507.637 90.616C507.637 91.9987 508.136 93.2113 509.133 94.254C510.131 95.274 511.491 95.784 513.213 95.784C514.755 95.784 516.307 95.3987 517.871 94.628C519.435 93.8573 520.875 92.6107 522.189 90.888V78.172C522.189 75.4747 521.532 73.2873 520.217 71.61C518.925 69.91 516.727 69.06 513.621 69.06C512.397 69.06 511.185 69.1847 509.983 69.434C508.782 69.6833 507.365 70.1027 505.733 70.692L504.169 66.476C506.391 65.524 508.351 64.9007 510.051 64.606C511.751 64.3113 513.349 64.164 514.845 64.164C519.197 64.164 522.575 65.4333 524.977 67.972C527.38 70.488 528.581 74.0467 528.581 78.648V88.372C528.581 91.092 528.683 93.4153 528.887 95.342C529.114 97.246 529.375 98.7987 529.669 100H525.045C524.411 99.6147 523.912 99.116 523.549 98.504C523.187 97.892 522.869 97.2347 522.597 96.532L522.529 95.308L521.781 96.532C520.059 98.2547 518.461 99.3767 516.987 99.898C515.514 100.419 513.961 100.68 512.329 100.68ZM539.417 100V48.456H545.605V100H539.417ZM571.166 100.68C568.673 100.68 566.406 100.215 564.366 99.286C562.349 98.3567 560.615 97.0647 559.164 95.41C557.736 93.7327 556.637 91.772 555.866 89.528C555.096 87.2613 554.71 84.7907 554.71 82.116C554.71 78.444 555.379 75.2707 556.716 72.596C558.076 69.8987 560.003 67.8247 562.496 66.374C564.99 64.9007 567.948 64.164 571.37 64.164C573.705 64.164 575.768 64.6853 577.558 65.728C579.349 66.748 580.788 68.1533 581.876 69.944C582.987 71.712 583.667 73.7293 583.916 75.996C584.188 78.24 583.95 80.5747 583.202 83H563.482C563.958 81.708 564.627 80.6313 565.488 79.77C566.372 78.886 567.63 78.444 569.262 78.444H577.898C578.102 76.6987 577.898 75.1233 577.286 73.718C576.697 72.29 575.813 71.1567 574.634 70.318C573.478 69.4793 572.164 69.06 570.69 69.06C568.786 69.06 567.109 69.57 565.658 70.59C564.208 71.61 563.074 73.106 562.258 75.078C561.442 77.0273 561.034 79.396 561.034 82.184C561.034 84.8813 561.499 87.25 562.428 89.29C563.38 91.33 564.672 92.928 566.304 94.084C567.936 95.2173 569.784 95.784 571.846 95.784C573.41 95.784 574.895 95.6253 576.3 95.308C577.706 94.968 579.372 94.3107 581.298 93.336L582.998 97.824C580.822 98.9347 578.714 99.6827 576.674 100.068C574.634 100.476 572.798 100.68 571.166 100.68ZM593.535 100V48.456H599.859V100H593.535ZM615.499 100V74.432C615.499 72.868 615.193 71.5873 614.581 70.59C613.991 69.57 613.028 69.06 611.691 69.06C611.147 69.06 610.693 69.1167 610.331 69.23C609.991 69.3433 609.515 69.468 608.903 69.604C607.588 69.8987 606.387 69.91 605.299 69.638C604.211 69.366 603.191 68.7427 602.239 67.768C604.664 66.34 606.67 65.388 608.257 64.912C609.843 64.4133 611.26 64.164 612.507 64.164C614.252 64.164 615.839 64.4927 617.267 65.15C618.717 65.8073 619.873 66.9293 620.735 68.516C621.596 70.1027 622.027 72.3013 622.027 75.112V100H615.499Z" fill="white"/>
</svg>
